<svg xmlns="http://www.w3.org/2000/svg" viewBox="0 0 180 180"><defs><style>.cls-1{fill:#f60;}.cls-2{fill:#424242;}</style></defs><title>icon_services_ui_and_ux_design</title><g id="UI_and_UX" data-name="UI and UX"><circle class="cls-1" cx="102.24" cy="94.47" r="19.1"/><circle class="cls-1" cx="58.22" cy="35.69" r="0.84"/><circle class="cls-1" cx="58.22" cy="39.11" r="0.84"/><circle class="cls-1" cx="58.22" cy="42.52" r="0.84"/><circle class="cls-1" cx="58.22" cy="45.94" r="0.84"/><circle class="cls-1" cx="58.22" cy="49.36" r="0.84"/><circle class="cls-1" cx="58.22" cy="52.78" r="0.84"/><circle class="cls-1" cx="58.22" cy="56.19" r="0.84"/><circle class="cls-1" cx="58.22" cy="59.61" r="0.84"/><circle class="cls-1" cx="58.22" cy="63.03" r="0.84"/><circle class="cls-1" cx="58.22" cy="66.45" r="0.84"/><circle class="cls-1" cx="58.22" cy="69.86" r="0.84"/><circle class="cls-1" cx="58.22" cy="73.28" r="0.84"/><circle class="cls-1" cx="54.87" cy="35.69" r="0.84"/><circle class="cls-1" cx="54.87" cy="39.11" r="0.84"/><circle class="cls-1" cx="54.87" cy="42.52" r="0.84"/><circle class="cls-1" cx="54.87" cy="45.94" r="0.84"/><circle class="cls-1" cx="54.87" cy="49.36" r="0.84"/><circle class="cls-1" cx="54.87" cy="52.78" r="0.84"/><circle class="cls-1" cx="54.87" cy="56.19" r="0.84"/><circle class="cls-1" cx="54.87" cy="59.61" r="0.84"/><circle class="cls-1" cx="54.87" cy="63.03" r="0.84"/><circle class="cls-1" cx="54.87" cy="66.45" r="0.84"/><circle class="cls-1" cx="54.87" cy="69.86" r="0.84"/><circle class="cls-1" cx="54.87" cy="73.28" r="0.84"/><circle class="cls-1" cx="51.52" cy="35.69" r="0.84"/><circle class="cls-1" cx="51.52" cy="39.11" r="0.84"/><circle class="cls-1" cx="51.52" cy="42.52" r="0.84"/><circle class="cls-1" cx="51.52" cy="45.94" r="0.84"/><circle class="cls-1" cx="51.52" cy="49.36" r="0.84"/><circle class="cls-1" cx="51.52" cy="52.78" r="0.84"/><circle class="cls-1" cx="51.52" cy="56.19" r="0.84"/><circle class="cls-1" cx="51.52" cy="59.61" r="0.84"/><circle class="cls-1" cx="51.52" cy="63.03" r="0.84"/><circle class="cls-1" cx="51.52" cy="66.45" r="0.84"/><circle class="cls-1" cx="51.52" cy="69.86" r="0.84"/><circle class="cls-1" cx="51.52" cy="73.28" r="0.84"/><circle class="cls-1" cx="48.16" cy="35.69" r="0.84"/><circle class="cls-1" cx="48.16" cy="39.11" r="0.84"/><circle class="cls-1" cx="48.16" cy="42.52" r="0.84"/><circle class="cls-1" cx="48.16" cy="45.94" r="0.84"/><circle class="cls-1" cx="48.16" cy="49.36" r="0.84"/><circle class="cls-1" cx="48.16" cy="52.78" r="0.84"/><circle class="cls-1" cx="48.16" cy="56.19" r="0.84"/><circle class="cls-1" cx="48.16" cy="59.61" r="0.84"/><circle class="cls-1" cx="48.16" cy="63.03" r="0.84"/><circle class="cls-1" cx="48.16" cy="66.45" r="0.84"/><circle class="cls-1" cx="48.16" cy="69.86" r="0.84"/><circle class="cls-1" cx="48.16" cy="73.28" r="0.84"/><circle class="cls-1" cx="44.81" cy="35.69" r="0.84"/><circle class="cls-1" cx="44.81" cy="39.11" r="0.84"/><circle class="cls-1" cx="44.81" cy="42.52" r="0.84"/><circle class="cls-1" cx="44.81" cy="45.94" r="0.84"/><circle class="cls-1" cx="44.81" cy="49.36" r="0.84"/><circle class="cls-1" cx="44.81" cy="52.78" r="0.84"/><circle class="cls-1" cx="44.81" cy="56.19" r="0.84"/><circle class="cls-1" cx="44.81" cy="59.61" r="0.84"/><circle class="cls-1" cx="44.81" cy="63.03" r="0.84"/><circle class="cls-1" cx="44.81" cy="66.45" r="0.84"/><circle class="cls-1" cx="44.81" cy="69.86" r="0.84"/><circle class="cls-1" cx="44.81" cy="73.28" r="0.84"/><circle class="cls-1" cx="41.46" cy="35.69" r="0.84"/><circle class="cls-1" cx="41.46" cy="39.11" r="0.84"/><circle class="cls-1" cx="41.46" cy="42.52" r="0.84"/><circle class="cls-1" cx="41.46" cy="45.94" r="0.84"/><circle class="cls-1" cx="41.46" cy="49.36" r="0.84"/><circle class="cls-1" cx="41.46" cy="52.78" r="0.84"/><circle class="cls-1" cx="41.46" cy="56.19" r="0.84"/><circle class="cls-1" cx="41.46" cy="59.61" r="0.84"/><circle class="cls-1" cx="41.46" cy="63.03" r="0.84"/><circle class="cls-1" cx="41.46" cy="66.45" r="0.84"/><circle class="cls-1" cx="41.46" cy="69.86" r="0.84"/><circle class="cls-1" cx="41.46" cy="73.28" r="0.84"/><circle class="cls-1" cx="38.11" cy="35.69" r="0.84"/><circle class="cls-1" cx="38.11" cy="39.11" r="0.84"/><circle class="cls-1" cx="38.11" cy="42.52" r="0.84"/><circle class="cls-1" cx="38.11" cy="45.94" r="0.84"/><circle class="cls-1" cx="38.11" cy="49.36" r="0.84"/><circle class="cls-1" cx="38.11" cy="52.78" r="0.84"/><circle class="cls-1" cx="38.11" cy="56.19" r="0.84"/><circle class="cls-1" cx="38.11" cy="59.61" r="0.84"/><circle class="cls-1" cx="38.11" cy="63.03" r="0.84"/><circle class="cls-1" cx="38.11" cy="66.45" r="0.84"/><circle class="cls-1" cx="38.11" cy="69.86" r="0.84"/><circle class="cls-1" cx="38.11" cy="73.28" r="0.84"/><circle class="cls-1" cx="34.75" cy="35.69" r="0.84"/><circle class="cls-1" cx="34.75" cy="39.11" r="0.84"/><circle class="cls-1" cx="34.75" cy="42.52" r="0.84"/><circle class="cls-1" cx="34.75" cy="45.94" r="0.84"/><circle class="cls-1" cx="34.75" cy="49.36" r="0.84"/><circle class="cls-1" cx="34.75" cy="52.78" r="0.84"/><circle class="cls-1" cx="34.75" cy="56.19" r="0.84"/><circle class="cls-1" cx="34.75" cy="59.61" r="0.84"/><circle class="cls-1" cx="34.75" cy="63.03" r="0.84"/><circle class="cls-1" cx="34.75" cy="66.45" r="0.84"/><circle class="cls-1" cx="34.75" cy="69.86" r="0.84"/><circle class="cls-1" cx="34.75" cy="73.28" r="0.84"/><circle class="cls-1" cx="31.4" cy="35.69" r="0.84"/><circle class="cls-1" cx="31.4" cy="39.11" r="0.84"/><circle class="cls-1" cx="31.4" cy="42.52" r="0.84"/><circle class="cls-1" cx="31.4" cy="45.94" r="0.84"/><circle class="cls-1" cx="31.4" cy="49.36" r="0.84"/><circle class="cls-1" cx="31.4" cy="52.78" r="0.84"/><circle class="cls-1" cx="31.4" cy="56.19" r="0.84"/><circle class="cls-1" cx="31.4" cy="59.61" r="0.84"/><circle class="cls-1" cx="31.4" cy="63.03" r="0.84"/><circle class="cls-1" cx="31.4" cy="66.45" r="0.84"/><circle class="cls-1" cx="31.4" cy="69.86" r="0.84"/><circle class="cls-1" cx="31.4" cy="73.28" r="0.84"/><circle class="cls-1" cx="28.05" cy="35.69" r="0.84"/><circle class="cls-1" cx="28.05" cy="39.11" r="0.84"/><circle class="cls-1" cx="28.05" cy="42.52" r="0.84"/><circle class="cls-1" cx="28.05" cy="45.94" r="0.84"/><circle class="cls-1" cx="28.05" cy="49.36" r="0.84"/><circle class="cls-1" cx="28.05" cy="52.78" r="0.84"/><circle class="cls-1" cx="28.05" cy="56.19" r="0.84"/><circle class="cls-1" cx="28.05" cy="59.61" r="0.84"/><circle class="cls-1" cx="28.05" cy="63.03" r="0.84"/><circle class="cls-1" cx="28.05" cy="66.45" r="0.84"/><circle class="cls-1" cx="28.05" cy="69.86" r="0.84"/><circle class="cls-1" cx="28.05" cy="73.28" r="0.84"/><circle class="cls-1" cx="24.7" cy="35.69" r="0.84"/><circle class="cls-1" cx="24.7" cy="39.11" r="0.84"/><circle class="cls-1" cx="24.7" cy="42.52" r="0.84"/><circle class="cls-1" cx="24.7" cy="45.94" r="0.84"/><circle class="cls-1" cx="24.7" cy="49.36" r="0.84"/><circle class="cls-1" cx="24.7" cy="52.78" r="0.84"/><circle class="cls-1" cx="24.7" cy="56.19" r="0.84"/><circle class="cls-1" cx="24.7" cy="59.61" r="0.84"/><circle class="cls-1" cx="24.7" cy="63.03" r="0.84"/><circle class="cls-1" cx="24.7" cy="66.45" r="0.84"/><circle class="cls-1" cx="24.7" cy="69.86" r="0.84"/><circle class="cls-1" cx="24.7" cy="73.28" r="0.84"/><circle class="cls-1" cx="21.34" cy="35.69" r="0.84"/><circle class="cls-1" cx="21.34" cy="39.11" r="0.84"/><circle class="cls-1" cx="21.34" cy="42.52" r="0.84"/><circle class="cls-1" cx="21.34" cy="45.94" r="0.84"/><circle class="cls-1" cx="21.34" cy="49.36" r="0.84"/><circle class="cls-1" cx="21.34" cy="52.78" r="0.84"/><circle class="cls-1" cx="21.34" cy="56.19" r="0.84"/><circle class="cls-1" cx="21.34" cy="59.61" r="0.84"/><circle class="cls-1" cx="21.34" cy="63.03" r="0.84"/><circle class="cls-1" cx="21.34" cy="66.45" r="0.84"/><circle class="cls-1" cx="21.34" cy="69.86" r="0.84"/><circle class="cls-1" cx="21.34" cy="73.28" r="0.84"/><path class="cls-2" d="M125.4,33.29H70.07a7.32,7.32,0,0,0-6.9,4.91,1.35,1.35,0,0,0,.18,1.24,1.33,1.33,0,0,0,1.1.57,1.37,1.37,0,0,0,1.33-.88A4.55,4.55,0,0,1,70.07,36H125.4a4.55,4.55,0,0,1,4.55,4.55L129.89,53,73.43,53V48.66a3.52,3.52,0,0,0-3.51-3.51H42.56A3.52,3.52,0,0,0,39,48.66V76a3.52,3.52,0,0,0,3.51,3.51H69.91A3.52,3.52,0,0,0,73.43,76l.05-20.2,56.47.05-.05,68.32-46.59-.05V119.8a3.52,3.52,0,0,0-3.51-3.51H42.56A3.52,3.52,0,0,0,39,119.8v11.54a3.52,3.52,0,0,0,3.51,3.51H79.79a3.52,3.52,0,0,0,3.51-3.51l.05-4.39,46.59.05v12.4A4.55,4.55,0,0,1,125.4,144H70.07a4.55,4.55,0,0,1-4.3-3.08,1.37,1.37,0,0,0-1.33-.88,1.33,1.33,0,0,0-1.1.57,1.35,1.35,0,0,0-.17,1.24,7.32,7.32,0,0,0,6.9,4.91H125.4a7.32,7.32,0,0,0,7.31-7.31V40.6A7.32,7.32,0,0,0,125.4,33.29ZM70.66,74.87a1.89,1.89,0,0,1-1.89,1.89H43.7a1.89,1.89,0,0,1-1.89-1.89V49.8a1.89,1.89,0,0,1,1.89-1.89H68.77a1.89,1.89,0,0,1,1.89,1.89Zm9.88,55.33a1.89,1.89,0,0,1-1.89,1.89H43.7a1.89,1.89,0,0,1-1.89-1.89v-9.26A1.89,1.89,0,0,1,43.7,119H78.65a1.89,1.89,0,0,1,1.89,1.89Z"/><path class="cls-2" d="M93.78,136.83a1.38,1.38,0,0,1,0-2.76h7.91a1.38,1.38,0,0,1,0,2.76Z"/><path class="cls-2" d="M156.86,104.43h-15.5a3.52,3.52,0,0,0-3.51,3.51v15.5a3.52,3.52,0,0,0,3.51,3.51h15.5a3.52,3.52,0,0,0,3.51-3.51v-15.5A3.52,3.52,0,0,0,156.86,104.43Zm.75,17.87a1.89,1.89,0,0,1-1.89,1.89H142.5a1.89,1.89,0,0,1-1.89-1.89V109.08a1.89,1.89,0,0,1,1.89-1.89h13.21a1.89,1.89,0,0,1,1.89,1.89Z"/><path class="cls-2" d="M52.28,127a1.38,1.38,0,0,1,0-2.76H70.07a1.38,1.38,0,0,1,0,2.76Z"/><circle class="cls-2" cx="149.11" cy="115.69" r="2.24"/><path class="cls-2" d="M64.14,111.14a1.38,1.38,0,0,1-1.38-1.38V86a1.38,1.38,0,1,1,2.76,0v23.72A1.38,1.38,0,0,1,64.14,111.14Z"/><path class="cls-2" d="M97.73,70.83A19.17,19.17,0,1,0,116.9,90,19.19,19.19,0,0,0,97.73,70.83Zm7.92,33.53a16.35,16.35,0,0,1-15.83,0l-.39-.26.1-.4a8.46,8.46,0,0,1,16.41,0l.08.46Zm3.44-2.55-.67.54-.3-.74a11.19,11.19,0,0,0-20.79,0l-.39.76-.58-.56a16.4,16.4,0,1,1,22.72,0Z"/><circle class="cls-2" cx="52.28" cy="109.76" r="1.38"/><circle class="cls-2" cx="44.38" cy="109.76" r="1.38"/><path class="cls-2" d="M36.47,111.14a1.38,1.38,0,1,1,1.38-1.38,1.38,1.38,0,0,1-1.38,1.38Z"/><circle class="cls-2" cx="52.28" cy="101.86" r="1.38"/><circle class="cls-2" cx="44.37" cy="101.86" r="1.38"/><path class="cls-2" d="M36.47,103.24a1.38,1.38,0,1,1,1.38-1.38,1.38,1.38,0,0,1-1.38,1.38Z"/><circle class="cls-2" cx="52.28" cy="93.95" r="1.38"/><circle class="cls-2" cx="44.38" cy="93.95" r="1.38"/><path class="cls-2" d="M36.47,95.33A1.38,1.38,0,1,1,37.85,94a1.38,1.38,0,0,1-1.38,1.38Z"/><path class="cls-2" d="M97.73,79.88A6.17,6.17,0,1,0,103.9,86,6.18,6.18,0,0,0,97.73,79.88Zm0,9.68A3.51,3.51,0,1,1,101.25,86,3.52,3.52,0,0,1,97.73,89.56Z"/><path class="cls-2" d="M48.33,71.62a1.38,1.38,0,0,1,0-2.76h5.93a1.38,1.38,0,0,1,0,2.76Z"/><path class="cls-2" d="M155,83.48a1.38,1.38,0,1,1,1.38-1.38A1.38,1.38,0,0,1,155,83.48Z"/><circle class="cls-2" cx="147.14" cy="82.1" r="1.38"/><circle class="cls-2" cx="139.23" cy="82.1" r="1.38"/><path class="cls-2" d="M123.42,83.48a1.38,1.38,0,1,1,1.38-1.38,1.38,1.38,0,0,1-1.38,1.38Z"/><path class="cls-2" d="M155,75.57a1.38,1.38,0,1,1,1.38-1.38A1.38,1.38,0,0,1,155,75.57Z"/><path class="cls-2" d="M123.42,75.57a1.38,1.38,0,1,1,1.38-1.38,1.38,1.38,0,0,1-1.38,1.38Z"/><path class="cls-2" d="M155,67.67a1.38,1.38,0,1,1,1.38-1.38A1.38,1.38,0,0,1,155,67.67Z"/><circle class="cls-2" cx="147.14" cy="66.29" r="1.38"/><circle class="cls-2" cx="139.23" cy="66.29" r="1.38"/><path class="cls-2" d="M123.42,67.67a1.38,1.38,0,1,1,1.38-1.38,1.38,1.38,0,0,1-1.38,1.38Z"/><path class="cls-2" d="M48.33,63.72a1.38,1.38,0,0,1,0-2.76H64.14a1.38,1.38,0,0,1,0,2.76Z"/><path class="cls-2" d="M48.33,55.81a1.38,1.38,0,0,1,0-2.76H64.14a1.38,1.38,0,0,1,0,2.76Z"/><path class="cls-2" d="M139.23,49.88a1.38,1.38,0,0,1,0-2.76h7.9a1.38,1.38,0,1,1,0,2.76Z"/><path class="cls-2" d="M97.73,45.93a1.38,1.38,0,0,1,0-2.76h7.91a1.38,1.38,0,0,1,0,2.76Z"/><circle class="cls-2" cx="89.83" cy="44.55" r="1.38"/><path class="cls-2" d="M139.23,42a1.38,1.38,0,0,1,0-2.76H155A1.38,1.38,0,0,1,155,42Z"/></g></svg>